<svg xmlns="http://www.w3.org/2000/svg" xmlns:xlink="http://www.w3.org/1999/xlink" viewBox="0 0 500 500" xmlns:v="https://vecta.io/nano"><style><![CDATA[.B{stroke:#263238}.C{fill:#92e3a9}.D{fill:#fff}.E{fill:#263238}.F{stroke-linejoin:round}.G{stroke-miterlimit:10}.H{stroke-linecap:round}]]></style><use xlink:href="#B" class="C"/><use xlink:href="#B" opacity=".7" class="D"/><g class="C"><use xlink:href="#C"/><use xlink:href="#D"/></g><g opacity=".4" class="D"><use xlink:href="#C"/><use xlink:href="#D"/></g><g class="B"><g class="F"><path d="M235.25 211.06h191.87a4.29 4.29 0 0 1 4.29 4.29v141.38a0 0 0 0 1 0 0H231a0 0 0 0 1 0 0V215.35a4.29 4.29 0 0 1 4.25-4.29z" class="C"/><path d="M247 222.12h168.36a4.29 4.29 0 0 1 4.29 4.29v132.28a0 0 0 0 1 0 0H242.72a0 0 0 0 1 0 0V226.41a4.29 4.29 0 0 1 4.28-4.29z" class="E"/><path d="M429.46 368.5H222.73c-10.83 0-19.62-6.56-19.62-14.65h246c-.04 8.09-8.82 14.65-19.65 14.65z" class="C"/><rect x="272.83" y="274.8" width="106.53" height="17.85" rx="5" class="D"/><path d="M321.55 278.04h9.08v11.36h-9.08zm-10.96 0h9.08v11.36h-9.08zm-10.97 0h9.08v11.36h-9.08zm-10.97 0h9.08v11.36h-9.08zm-1.89-.04h-4.47a5.68 5.68 0 0 0 0 11.36h4.47zm45.76.04h9.08v11.36h-9.08z" class="C"/><path d="M235.88 220.98h-53.93m53.93 55.5h-29.32m-5.76 0h-12.04m47.12-20.61h-60.21m60.21-9.94h-16.76m16.76 55.33h-60.21m60.21 21.93h-16.76m-19.89-92.78H145.3m-8.37 0h-11.52" fill="none" class="H"/><path d="M176.51,331.23a7.51,7.51,0,0,1,6.25-9c7.8-1.76,9,7.61,9.17,9.95Z" class="C"/></g><g class="G"><path d="M191.34 326.55h-7.22v1.95l7.81 3.71a10.77 10.77 0 0 0-.59-5.66z" class="E"/><path d="M71.35 311.33v35.9s13.26 4.29 23.6 8.59a237 237 0 0 1 21.47 10.53H233.1s-11.32.39-13.27-1.36-1.56-5.66 1.95-8 23.61-3.12 23.61-3.12 71.41-3.91 71.8-5.08.39-2.14-1.36-2.73-31-9.17-52.88-12.1-41.17-1.75-45.66-.39-16.39-.39-24.58-1.95a129.7 129.7 0 0 0-15.22-1.95v-7.22h-7.22v-2.14h2.93v-10.15a45.68 45.68 0 0 0-18.74 1.76c-10 3.12-20.48 13.65-28.29 18.14s-16.58 6.83-20.87 6.83a21.2 21.2 0 0 1-7.22-1.17v-7.8l3.7-3.91v-14.63H83.44s-.19 3.51-3.31 3.71-8.78-1.76-8.78-1.76z" class="D"/></g><path d="M98.08 328.17v-.25l3.7-3.91v-14.63H83.44s-.19 3.51-3.31 3.71-8.78-1.76-8.78-1.76v33.75c4.18-5.08 12.06-11.64 26.73-16.91zm36.87 22.95h-9.62l12.34 15.23h10.68l-13.4-15.23zm16.09 0h-9.61l12.33 15.23h10.68l-13.4-15.23zm49.33 9.52c-8.63-2.16-13.49-9.18-17.27-16.2s-12.69-14-15.66-13.76-9.71 1.35-9.71 1.35-2.43-1.08-11.88-6.75a35.63 35.63 0 0 0-8-3.54 138.29 138.29 0 0 1-11.31 8.12q2.76.06 6.38.28c8.91.54 11.61 5.4 11.61 5.4a33.85 33.85 0 0 1 5.94-.54c3.24 0 13.22 8.36 15.65 17 1.56 5.55 6.69 11.1 10.15 14.35h47.63l-23.53-5.71z" class="C F"/><g class="E G"><path d="M233.1 366.35h-5.19 5.19z"/><path d="M221.78 357c3.51-2.34 23.61-3.12 23.61-3.12l46.22-2.78c-13.05-.69-51.77-2.58-60.66-1.13-10.73 1.76-31.61 6.25-43.32 11.32s-26.53.2-54.82-3.12l-45.25-5.25c2.49.93 5 1.92 7.39 2.91a237 237 0 0 1 21.47 10.53h111.49c-3.25-.09-7-.42-8.08-1.36-1.95-1.77-1.56-5.67 1.95-8z"/></g></g><circle cx="264.65" cy="349.09" r="19.41" class="E"/><path d="M280.78 338.28l-16.38 10.36 19.29-3.38a19.28 19.28 0 0 0-2.91-6.98zm-32.9 20.57l16.77-9.76-19.23 2.64a19.09 19.09 0 0 0 2.46 7.12z" opacity=".31" class="D"/><path d="M246.87 356.87l9.89-5.06-10.94 2a18.71 18.71 0 0 0 1.05 3.06zm25.31-11.24l11-2.32a19.35 19.35 0 0 0-1.35-3.25z" class="D"/><circle cx="264.65" cy="349.09" r="11.41" class="B C F"/><g class="E"><circle cx="264.65" cy="349.09" r="3.02"/><path d="M291.05 351.33l4.48 5.27h12.3l-2.93-6.64-13.85 1.37z" class="B G"/></g><path d="M289.49 356.21v9.56h31.41v-8.2s-7.81-.58-15.61-1.95-14.05-.78-15.8.59zM221 354.45v9.76h-22.44v-2.73s6.83-1.17 10.34-3.52 5.86-3.7 12.1-3.51z" class="D B G"/><g class="F B"><path d="M213.19,338.26h-8.78s-3.7.78-3.31,4.09,3.12,7,4.68,7H220" fill="none" class="H"/><path d="M204.41 342c1-4.48 4.3-3.31 4.3-3.31l-.56-.39h-3.74s-3.7.78-3.31 4.09 3.12 7 4.68 7a9.29 9.29 0 0 1-1.37-7.39z" class="E"/></g><path d="M113.69 344.7c11.12-1.76 32-9.17 32-9.17 14.44-6 31.81-5.86 31.81-5.86m-72.01 19.51l60.29-10.92c26.53-4.48 41.37-2.15 47-3.12s8.78-2.54 13.86-2.74" fill="none" class="G B"/><g class="E"><path d="M171.63,310l-1.95-3.13s2.35-1.36-.58-1.56-6.44,0-6.83.78,2.54.59,2.54.59V310Z" class="B G"/><circle cx="101.49" cy="349.09" r="19.41"/></g><path d="M117.62 338.28l-16.38 10.36 19.29-3.38a19.45 19.45 0 0 0-2.91-6.98zm-32.9 20.57l16.77-9.76-19.23 2.64a19.09 19.09 0 0 0 2.46 7.12z" opacity=".31" class="D"/><path d="M83.71 356.87l9.89-5.06-10.94 2a18.71 18.71 0 0 0 1.05 3.06zM109 345.63l11-2.32a19.35 19.35 0 0 0-1.35-3.25z" class="D"/><circle cx="101.49" cy="349.09" r="11.41" class="B C F"/><circle cx="101.49" cy="349.09" r="3.02" class="E"/><g fill="none" class="B F H"><path d="M162.24 314.84h-29.32m-57.73 8.76H45.87m29.32 12.27H58.6m77.94-11.1h-16.59m7.21-9.93h-12.04"/><path d="M35.8 368.5h430.03" stroke-width="3"/></g><defs ><path id="B" d="M437.18,367.7c2.6-5.8,14.13-33.77,17.48-81.56,3.8-54-10.43-106.82-41.72-140.13s-57.84-25.28-89.13-17.24c-16.87,4.34-31.23-1.29-46.8-7.23-43.95-16.74-87.77-5.94-112.67,35.75-8.12,13.6-10.84,26.54-11.42,42.09s-.75,32.21-12.12,44.26c-15.17,16.08-36,13.79-49.31,40.21s-15.17,52.84-22.76,58.58-13.27,4.59-19,11.49c-3.62,4.38-4.94,10.16-5.42,13.78Z"/><path id="C" d="M343 166.74c.93-.31-2.88-11.4-3.22-12.44-2.35-7.18-8.19-14.22-16.34-14.07s-17.55 11.5-25.68 6.88c-6.72-3.81-10.34-11.2-17.71-14.17-13.94-5.63-13.95 9.22-24.16 11.58-7.81 1.8-10.21-4.81-17.42.6s-2.41 7.81-10.21 9-9-.6-13.82 1.2-13.22 10.81-13.22 10.81-6.6-2.4-12.61 0-8.41 6-8.41 6h170s-1.84-6.59-7.2-5.39z"/><path id="D" d="M424 192.34c.49-.17-1.53-6.08-1.72-6.64-1.25-3.82-4.37-7.58-8.71-7.5s-9.36 6.13-13.69 3.67c-3.59-2-5.52-6-9.45-7.56-7.43-3-7.43 4.92-12.88 6.18-4.16 1-5.44-2.56-9.29.32s-1.28 4.17-5.44 4.81-4.81-.32-7.37.64-7 5.76-7 5.76a10.57 10.57 0 0 0-6.72 0 10 10 0 0 0-4.49 3.2h90.65s-1-3.52-3.89-2.88z"/></defs></svg>