<?xml version="1.0" standalone="no"?>
<!DOCTYPE svg PUBLIC "-//W3C//DTD SVG 20010904//EN"
 "http://www.w3.org/TR/2001/REC-SVG-20010904/DTD/svg10.dtd">
<svg version="1.0" xmlns="http://www.w3.org/2000/svg"
 width="354.000000pt" height="354.000000pt" viewBox="0 0 354.000000 354.000000"
 preserveAspectRatio="xMidYMid meet">
<metadata>
Created by potrace 1.14, written by Peter Selinger 2001-2017
</metadata>
<g transform="translate(0.000000,354.000000) scale(0.100000,-0.100000)"
fill="#000000" stroke="none">
<path d="M2306 3314 c-3 -8 -6 -24 -6 -34 0 -12 -26 -34 -77 -65 -342 -208
-781 -684 -1112 -1205 -40 -63 -75 -116 -76 -118 -2 -2 -41 -12 -87 -22 -150
-33 -294 -96 -285 -123 2 -8 46 -13 135 -15 73 -1 132 -6 132 -11 0 -4 -11
-24 -23 -43 -34 -50 -265 -511 -329 -658 -62 -139 -103 -258 -118 -339 -12
-62 -1 -114 31 -155 27 -34 123 -90 193 -112 l56 -18 0 -43 c0 -41 2 -45 37
-60 21 -8 57 -21 79 -28 l42 -12 7 66 c23 228 115 559 225 816 26 61 83 182
127 270 l81 160 118 -2 c66 0 204 -4 307 -8 l189 -7 -7 -25 c-6 -25 -18 -183
-35 -448 -5 -82 -10 -232 -10 -333 l0 -183 26 -24 c39 -36 152 -95 206 -108
48 -12 48 -12 48 -53 0 -23 6 -46 13 -52 21 -18 179 -60 239 -63 l57 -4 5 365
c2 232 10 423 20 525 67 668 219 1329 389 1698 46 100 50 91 -53 134 -36 15
-66 28 -68 29 -2 1 4 25 14 53 16 51 16 52 -6 76 -30 32 -227 128 -325 158
-119 36 -151 41 -159 21z m-106 -530 l-20 -99 -119 -120 c-161 -164 -362 -401
-480 -567 -37 -51 -21 -46 -193 -63 l-58 -5 57 87 c252 390 562 727 773 842
30 16 56 29 57 27 2 -2 -6 -47 -17 -102z m-62 -271 c-17 -65 -50 -214 -74
-332 -24 -118 -46 -216 -49 -219 -3 -3 -103 -7 -222 -9 l-216 -4 18 28 c47 74
221 298 297 383 74 83 263 270 272 270 2 0 -10 -53 -26 -117z m-796 -809 l36
-6 -29 -47 c-29 -45 -32 -46 -107 -62 -42 -8 -87 -19 -98 -23 -20 -6 -18 1 18
69 l39 75 52 0 c29 0 68 -3 89 -6z m613 -35 c5 -5 -20 -9 -60 -9 -39 -1 -115
-5 -170 -9 -55 -5 -101 -7 -103 -6 -2 2 3 13 10 25 13 21 17 21 163 14 83 -3
154 -10 160 -15z m-747 -244 c2 -2 -38 -79 -89 -171 -109 -199 -241 -470 -294
-604 -21 -52 -40 -97 -42 -100 -10 -10 11 99 43 230 40 164 119 395 187 549
l51 113 70 -7 c39 -4 72 -8 74 -10z"/>
</g>
</svg>
